# xmcd
#
# Track frame offsets: 
#        150
#        14057
#        33013
#        48950
#        66924
#        84189
#        104851
#        116875
#        133323
#        151544
#        168254
#        187488
#        202568
#        221561
#
# Disc length: 3175 seconds
#
# Revision: 4
# Processed by: cddbd v1.5.1PL0 Copyright (c) Steve Scherf et al.
# Submitted via: ExactAudioCopy v0.95a4
#
DISCID=c20c650e
DTITLE=Bruno and Marrone - Sonhos, Planos, Fantasias
DYEAR=2002
DGENRE=Sertanejo
TTITLE0=Credo em cruz Ave-Maria
TTITLE1=Agora vai
TTITLE2=Anjo de amor
TTITLE3=Eu queria
TTITLE4=Então pode ir
TTITLE5=Se tiver coragem joga fora
TTITLE6=Tá liberado
TTITLE7=Menina
TTITLE8=Raio de luar
TTITLE9=Cama vazia
TTITLE10=Remar contra a maré
TTITLE11=Telefone mudo
TTITLE12=Noite sem sono
TTITLE13=Metade da metade
EXTD=YEAR: 2002
EXTT0=
EXTT1=
EXTT2=
EXTT3=
EXTT4=
EXTT5=
EXTT6=
EXTT7=
EXTT8=
EXTT9=
EXTT10=
EXTT11=
EXTT12=
EXTT13=
PLAYORDER=
